<svg width="23" height="16" viewBox="0 0 23 16" fill="none" xmlns="http://www.w3.org/2000/svg">
<path d="M22.5373 2.4102C22.2836 1.46787 21.5406 0.724873 20.5983 0.471168C18.8767 0 11.9904 0 11.9904 0C11.9904 0 5.10413 0 3.38256 0.453046C2.45835 0.706752 1.69723 1.46787 1.44352 2.4102C0.990479 4.13178 0.990479 7.70178 0.990479 7.70178C0.990479 7.70178 0.990479 11.2899 1.44352 12.9934C1.69723 13.9357 2.44023 14.6787 3.38256 14.9324C5.12226 15.4036 11.9904 15.4036 11.9904 15.4036C11.9904 15.4036 18.8767 15.4036 20.5983 14.9505C21.5406 14.6968 22.2836 13.9538 22.5373 13.0115C22.9904 11.2899 22.9904 7.7199 22.9904 7.7199C22.9904 7.7199 23.0085 4.13178 22.5373 2.4102Z" fill="white"/>
<path d="M9.79767 10.9997L15.5242 7.70149L9.79767 4.40332V10.9997Z" fill="black"/>
</svg>
