<svg xmlns="http://www.w3.org/2000/svg" width="20" height="20" fill="none"><path fill="#fff" d="M10.5 1.7c2.53 0 2.83.02 3.83.07.93.04 1.43.2 1.76.33.43.17.75.37 1.1.7.3.34.52.65.7 1.1.12.34.27.84.32 1.76.04 1 .05 1.3.05 3.84s0 2.84-.05 3.84c-.05.93-.2 1.43-.33 1.77-.2.46-.4.78-.7 1.1-.35.34-.67.55-1.1.7-.35.15-.85.3-1.78.35-1 .04-1.3.06-3.84.06-2.55 0-2.85 0-3.85-.05-.93-.04-1.43-.2-1.76-.33-.46-.16-.78-.37-1.1-.7-.34-.33-.55-.65-.72-1.1-.12-.33-.28-.83-.32-1.76-.05-1-.06-1.3-.06-3.84 0-2.53 0-2.83.06-3.84.04-.92.2-1.42.32-1.76.18-.45.38-.76.7-1.1.34-.33.66-.53 1.1-.7.34-.13.84-.3 1.77-.33 1-.06 1.3-.07 3.84-.07zm0-1.7C7.9 0 7.6 0 6.56.06c-1 .04-1.7.2-2.3.44-.63.24-1.16.57-1.68 1.1-.54.52-.87 1.06-1.1 1.68-.25.6-.4 1.3-.45 2.3C1 6.6 1 6.93 1 9.5s0 2.9.05 3.92c.04 1 .2 1.7.44 2.3.22.63.55 1.16 1.1 1.7.5.52 1.04.84 1.66 1.1.6.22 1.3.38 2.3.43C7.6 19 7.92 19 10.5 19s2.9 0 3.9-.05c1.02-.05 1.7-.2 2.32-.44.63-.23 1.15-.55 1.68-1.1.53-.5.86-1.04 1.1-1.66.23-.6.4-1.3.44-2.3C20 12.4 20 12.1 20 9.5s0-2.9-.06-3.9c-.04-1-.2-1.7-.44-2.3-.24-.64-.57-1.17-1.1-1.7-.53-.53-1.06-.85-1.68-1.1-.6-.23-1.3-.4-2.3-.44C13.38 0 13.06 0 10.48 0zm0 4.62c-2.7 0-4.9 2.2-4.9 4.88 0 2.7 2.2 4.88 4.9 4.88s4.87-2.18 4.87-4.88c0-2.7-2.18-4.88-4.88-4.88zm0 8.05c-1.76 0-3.18-1.42-3.18-3.17s1.42-3.17 3.17-3.17c1.73 0 3.15 1.42 3.15 3.17s-1.42 3.17-3.17 3.17zm5.06-7.1c.63 0 1.14-.5 1.14-1.14 0-.63-.5-1.14-1.14-1.14-.63 0-1.14.5-1.14 1.12 0 .63.5 1.14 1.14 1.14z"/></svg>