<svg xmlns="http://www.w3.org/2000/svg" width="20" height="17" fill="none"><path fill="#fff" d="M6.28 16.25c7.54 0 11.67-6.25 11.67-11.67 0-.17 0-.35 0-.52.8-.58 1.5-1.3 2.04-2.13-.76.33-1.55.54-2.38.65.85-.5 1.5-1.32 1.8-2.28-.78.48-1.66.8-2.6 1C16.08.5 15 0 13.82 0c-2.24 0-4.1 1.84-4.1 4.1 0 .32.06.64.1.94-3.4-.17-6.4-1.8-8.44-4.3-.35.62-.55 1.32-.55 2.08 0 1.42.73 2.68 1.83 3.4-.68 0-1.3-.2-1.86-.5 0 .02 0 .03 0 .06 0 1.98 1.42 3.64 3.3 4.02-.36.1-.72.14-1.1.14-.26 0-.5-.02-.76-.07.52 1.63 2.04 2.82 3.83 2.85-1.4 1.1-3.17 1.76-5.1 1.76-.32 0-.65-.02-.97-.06 1.8 1.15 3.97 1.83 6.28 1.83z"/></svg>